# xmcd
#
# Track frame offsets:
#   150
#   17982
#   32551
#   51825
#   67620
#   85393
#   99395
#   116294
#   133127
#   152383
#   171378
#   187848
#   209177
#   225100
#   244355
#   258706
#   275035
#   288108
#   301532
#   317779
#   333427
#
# Disc length: 4627 seconds
#
# Revision: 0
# Processed by: cddbd v1.5PL3 Copyright (c) Steve Scherf et al.
# Submitted via: Media_Universe 3.0
#
DISCID=20121115
DTITLE=Chely Wright - Never Love You Enough
DYEAR=1900
DGENRE=Country
TTITLE0=Never Love You Enough
TTITLE1=Jezebel
TTITLE2=One Night In Las Vegas
TTITLE3=While I Was Waiting
TTITLE4=What If We Could Fly
TTITLE5=Wouldn't It Be Cool
TTITLE6=Her
TTITLE7=Love Didn't Listen
TTITLE8=For The Long Run
TTITLE9=Horoscope
TTITLE10=Not As In Love
TTITLE11=Deep Down Low
TTITLE12=Hard To Be A Husband/ Hard To Be  A Wife
TTITLE13=I'm Trying
TTITLE14=Nobody But A Fool
TTITLE15=Sea Of Cowboy Hats
TTITLE16=He's A Good Ole Boy
TTITLE17=Till I Was Loved By You
TTITLE18=Listen To The Radio
TTITLE19=Alligator Purse
TTITLE20=Right In The Middle Of It
EXTD=
EXTT0=
EXTT1=
EXTT2=
EXTT3=
EXTT4=
EXTT5=
EXTT6=
EXTT7=
EXTT8=
EXTT9=
EXTT10=
EXTT11=
EXTT12=
EXTT13=
EXTT14=
EXTT15=
EXTT16=
EXTT17=
EXTT18=
EXTT19=
EXTT20=
PLAYORDER=
